inDegrees=no
num_controls=7
num_derivatives=13
num_iterations=35
num_multipliers=7
num_parameters=0
num_slacks=7
num_states=26
objective=0.426616
objective_accelerations=0.058836
objective_balance=0.001157
objective_effort=0.015619
objective_height=0.345016
objective_ligament=0.005988
solver_duration=507.732307
status=Solve_Succeeded
success=true
DataType=double
version=3
OpenSimVersion=4.5
endheader
time	/jointset/ground_pelvis/pelvis_tilt/value	/jointset/ground_pelvis/pelvis_tx/value	/jointset/ground_pelvis/pelvis_ty/value	/jointset/hip_l/hip_flexion_l/value	/jointset/hip_l/hip_adduction_l/value	/jointset/hip_l/hip_rotation_l/value	/jointset/back/lumbar_extension/value	/jointset/patellofemoral_l/patellar_flexion_l/value	/jointset/knee_l/knee_flexion_l/value	/jointset/knee_l/knee_adduction_l/value	/jointset/knee_l/knee_rotation_l/value	/jointset/ankle_l/ankle_angle_l/value	/jointset/subtalar_l/subtalar_angle_l/value	/jointset/ground_pelvis/pelvis_tilt/speed	/jointset/ground_pelvis/pelvis_tx/speed	/jointset/ground_pelvis/pelvis_ty/speed	/jointset/hip_l/hip_flexion_l/speed	/jointset/hip_l/hip_adduction_l/speed	/jointset/hip_l/hip_rotation_l/speed	/jointset/back/lumbar_extension/speed	/jointset/patellofemoral_l/patellar_flexion_l/speed	/jointset/knee_l/knee_flexion_l/speed	/jointset/knee_l/knee_adduction_l/speed	/jointset/knee_l/knee_rotation_l/speed	/jointset/ankle_l/ankle_angle_l/speed	/jointset/subtalar_l/subtalar_angle_l/speed	/forceset/tau_hip_flexion_l	/forceset/tau_hip_adduction_l	/forceset/tau_hip_rotation_l	/forceset/tau_knee_flexion_l	/forceset/tau_ankle_angle_l	/forceset/tau_subtalar_angle_l	/forceset/tau_lumbar_extension	lambda_cid13_p0	lambda_cid13_p1	lambda_cid13_p2	lambda_cid13_p3	lambda_cid13_p4	lambda_cid13_p5	lambda_cid14_p0	/jointset/ground_pelvis/pelvis_tilt/accel	/jointset/ground_pelvis/pelvis_tx/accel	/jointset/ground_pelvis/pelvis_ty/accel	/jointset/hip_l/hip_flexion_l/accel	/jointset/hip_l/hip_adduction_l/accel	/jointset/hip_l/hip_rotation_l/accel	/jointset/back/lumbar_extension/accel	/jointset/patellofemoral_l/patellar_flexion_l/accel	/jointset/knee_l/knee_flexion_l/accel	/jointset/knee_l/knee_adduction_l/accel	/jointset/knee_l/knee_rotation_l/accel	/jointset/ankle_l/ankle_angle_l/accel	/jointset/subtalar_l/subtalar_angle_l/accel	gamma_cid13_p0	gamma_cid13_p1	gamma_cid13_p2	gamma_cid13_p3	gamma_cid13_p4	gamma_cid13_p5	gamma_cid14_p0
0	0.05075226822021389	0.1067449667053028	0.90347741502982	0.1266922784136757	-0.3650047161557772	-0.2219230269726808	-0.2144969558742783	0.2051545070141929	0.2051545070141877	-0.164418857957082	-0.1548698033637167	0.09024313228550125	0.08444603631032482	0	0	0	0	0	0	0	0	0	0	0	0	0	0.1155868297112471	-0.03062565624433238	-0.008547945269607763	-0.2476873246352408	0.191040688696348	-0.1066136216901733	-0.04884590731248799	29.27171698843425	42.96520696569679	-9.173367265953805	-18.41761204698577	-438.3392195660135	-27.97581131204449	-25.98882981213736	-3.471537717526897	-1.129559280074239	-0.8908130227290808	11.77351978718235	-0.2715126491422916	3.082644526563208	-3.619391591832173	10.91518341959659	10.91518341959611	2.103498184195024	-1.13966835296971	3.52671487597275	0.7423211641884835	1.755990938239628e-09	2.635967370348889e-07	7.640756795680938e-08	5.865027141346878e-09	3.560001099757735e-08	-4.379711901045977e-08	2.061352990168383e-08
0.01	0.05058671296497712	0.1066904686314422	0.9034342720862001	0.1272629775778755	-0.3650163227856388	-0.2217610122219391	-0.2146827747479202	0.2056871085295828	0.205687108529633	-0.1643135406745667	-0.1549134231116919	0.09041762008001042	0.08448462606040731	-0.03297811737854339	-0.01072972648939003	-0.008595318712453072	0.113522566635536	-0.002219174183769123	0.03238598736787608	-0.03695122631628023	0.1060493490270584	0.1060493490270573	0.02113821688008588	-0.00849617371034111	0.03493451493916593	0.007841606511066548	0.1160474319109341	-0.03909606908964637	-0.008828193479880328	-0.2513190285137064	0.1954663202178352	-0.09991372858486861	-0.04861102046730412	31.09682002631132	39.84742489002183	-8.803715940003375	-20.83640805333759	-439.1585188887464	-34.80841366944946	-25.98934117991097	-3.19101266501951	-1.019194918161181	-0.8388936737703196	11.04903157819841	-0.1818596254604924	3.314030099888251	-3.701105889783974	10.37916341391716	10.37916341391738	2.130255434974362	-0.6704206140780532	3.48237306185524	0.8235780851822857	-1.329972199264887e-08	7.488358522945242e-07	-5.529678682898961e-08	7.38676340002023e-08	-1.565544580719051e-07	2.031370605810729e-07	8.923497340039131e-08
0.02	0.05009536375255687	0.1065337701757298	0.9033061754798016	0.1289503837036922	-0.3650470691218124	-0.2212756467458938	-0.2152317294323804	0.2072660740891799	0.2072660740891804	-0.1639945868241267	-0.1550351703435432	0.09094256367572057	0.08460533141372306	-0.06515879143709166	-0.02044007637036111	-0.01699073255567594	0.2233413923294822	-0.003827941266167099	0.06467014505529568	-0.0726271621628808	0.209272808840379	0.2092728088403779	0.04272731356253973	-0.01562549678114279	0.07009116023699521	0.01642312064679486	0.1165080341100302	-0.0475664819350418	-0.009108441690276435	-0.2549507323926081	0.1998919517391312	-0.0932138354797078	-0.0483761336224082	32.97050982463985	36.73699596446011	-8.453356053733661	-23.31202368073013	-439.0964128433188	-41.44951402307977	-25.99027833634642	-3.312049053527835	-0.9256839583905228	-0.8508320488830409	11.03277159886445	-0.1494312288680589	3.062278590471942	-3.364333497896289	10.35000557684906	10.3500055768488	2.193674144668669	-0.8662982250618345	3.571140947705348	0.8903026891208107	-2.835543492353737e-08	1.23407496755416e-06	-1.870011416147886e-07	1.418702408590577e-07	-3.487089271413876e-07	4.500712401726056e-07	1.578564168990988e-07
0.03	0.04928553434775661	0.1062832877784464	0.9030947040746652	0.1317201353855728	-0.3650919557355845	-0.2204714325876289	-0.216130026412538	0.2098633642571816	0.209863364257156	-0.16345974559392	-0.1552252704883852	0.09181728084089583	0.08481354261341073	-0.09669218621719579	-0.02966225194572791	-0.02530454102802562	0.3301688091610193	-0.005167761776223884	0.09597978783950589	-0.1067649288845744	0.30965557034337	0.3096555703433747	0.06404138682871627	-0.02236980855571045	0.1045762205600177	0.02512170465501533	0.1121030997541618	-0.0427527037236977	-0.008057943357631174	-0.2488842298062594	0.1912772663155719	-0.09420538204276981	-0.04517829161931213	30.12831593075006	37.43659222694451	-8.303682305310488	-21.10804278639451	-438.9897020482368	-39.14106360406377	-25.99088874665793	-3.056743158151226	-0.9213330374429073	-0.8218746480373444	10.44170549510254	-0.1291650496705232	3.13643932711247	-3.398402511657091	9.80293142737087	9.802931427371901	2.070530130172213	-0.5748487133362704	3.345813640706812	0.8448518629100468	-3.792843060714762e-08	1.286485055770946e-06	-1.346815263312119e-07	1.550904764356996e-07	-4.982092799610051e-07	3.885342569481707e-07	1.649380365115003e-07
0.04	0.04816381930157927	0.1059404138893424	0.9028000507044803	0.1355449569896827	-0.3651508220719669	-0.219359895560565	-0.2173616819103922	0.2134485860381969	0.2134485860381962	-0.1627177123885602	-0.1554820839630436	0.09302857362252184	0.08510578277442689	-0.1275359197132824	-0.03891837473447347	-0.03362712556533864	0.4343553767847299	-0.006623885790137085	0.1261347188123981	-0.1392988657003149	0.4068591314602352	0.406859131460246	0.08416570859811248	-0.02896816271754644	0.1374062835272888	0.03322891291273378	0.1076981653976391	-0.03793892551229553	-0.007007445024364976	-0.2428177272202885	0.182662580891945	-0.09519692860579675	-0.0419804496167107	27.33052183146524	38.14647016408938	-8.176273789813097	-18.95260194605911	-438.0666477909162	-36.64233019712258	-25.99041077755042	-3.174116796724318	-0.9324734010663577	-0.8525872618757093	10.50460175729924	-0.1726919296393209	2.831336228208379	-3.043567516705763	9.714165499623908	9.714165499623745	1.95572384531268	-0.8371067025154934	3.240141476554993	0.7720275390203917	-4.738838057431914e-08	1.329970834151798e-06	-7.8567602386411e-08	1.671811785838422e-07	-6.468301664661924e-07	3.20637043562582e-07	1.707507937757306e-07
0.05	0.0467361368072864	0.1055052193564094	0.9024218312309761	0.1404000890641109	-0.3652242358039803	-0.2179528841238501	-0.2189095131264747	0.2179916587499688	0.2179916587499274	-0.1617789285578791	-0.1558045366673049	0.09456125843865101	0.08547722870248312	-0.1579253327435077	-0.04808288594276411	-0.04203798782702941	0.5362892089640378	-0.008012433686931357	0.1551746172620569	-0.1699455987388241	0.5013087059183228	0.501308705918337	0.1035210127146918	-0.03537883934256898	0.1689679159556592	0.04106894256582288	0.1038398445936471	-0.03600572520605193	-0.00606973520402727	-0.2389848874585105	0.1767749873780239	-0.0940037416474595	-0.03909886537451068	25.54278357779003	37.81818241744832	-7.983317601868743	-17.89244824714349	-437.3772073755824	-36.44905828056055	-25.98800813683975	-2.9600552630608	-0.9027595605903392	-0.838649079051363	9.9804994742725	-0.1151562714276122	2.926428102563757	-3.026959380973907	9.243313475899859	9.243313475900118	1.915145652687246	-0.5215603548180525	3.089797455381357	0.7910918807060561	-4.653490158995479e-08	1.440102160385715e-06	-1.544024825535466e-07	1.842404030915181e-07	-6.907313637827815e-07	4.171097913279245e-07	1.925576682370562e-07
